<?xml version="1.0" encoding="UTF-8"?>
<svg version="1.1" xmlns="http://www.w3.org/2000/svg" width="1163" height="1178">
<path d="M0 0 C383.79 0 767.58 0 1163 0 C1163 388.74 1163 777.48 1163 1178 C779.21 1178 395.42 1178 0 1178 C0 789.26 0 400.52 0 0 Z " fill="#000000" transform="translate(0,0)"/>
<path d="M0 0 C0.66 0 1.32 0 2 0 C4.75702189 4.79482068 5.53328373 8.58609132 6 14 C6.66 14 7.32 14 8 14 C8.9174001 16.43722626 9.83409206 18.87471289 10.75 21.3125 C11.02585937 22.04654053 11.30171875 22.78058105 11.5859375 23.53686523 C13.40634166 28.39039022 15.17653466 33.25958845 16.921875 38.140625 C17.76726408 40.38274387 18.65209749 42.58798195 19.578125 44.796875 C19.85398437 45.46130615 20.12984375 46.1257373 20.4140625 46.81030273 C20.95693808 48.11057218 21.50854965 49.40724115 22.0703125 50.69946289 C23.70438415 54.62407764 24.28570197 57.75992297 24 62 C24.66 62 25.32 62 26 62 C26.433125 63.155 26.86625 64.31 27.3125 65.5 C27.58964844 66.23734375 27.86679687 66.9746875 28.15234375 67.734375 C28.90142776 69.73653503 29.639086 71.74296182 30.375 73.75 C31.60458994 77.03740107 32.94525754 80.26754179 34.3125 83.5 C36.64159777 89.03511488 38.74924084 94.63397522 40.83032227 100.26513672 C42.4627647 104.65189498 44.24853669 108.92595348 46.1875 113.18359375 C48.31752041 117.94541823 49.24887458 121.77363383 49 127 C49.66 127 50.32 127 51 127 C51 128.32 51 129.64 51 131 C51.66 131 52.32 131 53 131 C54.7756641 134.79346422 56.13476061 138.26005666 56.9375 142.375 C57.75341155 146.35341171 59.07362016 149.80296035 60.8046875 153.46875 C64.27060837 160.80834714 67.21154778 168.16159153 69.75 175.875 C70.06582031 176.81085938 70.38164063 177.74671875 70.70703125 178.7109375 C71.00480469 179.608125 71.30257813 180.5053125 71.609375 181.4296875 C71.87717773 182.23647949 72.14498047 183.04327148 72.42089844 183.87451172 C73 186 73 186 73 189 C73.66 189 74.32 189 75 189 C75.39832031 190.07378906 75.79664063 191.14757812 76.20703125 192.25390625 C76.74209782 193.69013758 77.27725914 195.12633362 77.8125 196.5625 C78.20405273 197.61920898 78.20405273 197.61920898 78.60351562 198.69726562 C79.85630537 202.05350482 81.15345793 205.35314269 82.58203125 208.640625 C83.91534889 211.79944915 84.93177184 214.89454861 85.875 218.1875 C88.14123476 225.72425007 90.92368476 233.01347474 94.5625 240 C96.49651483 244.03620487 97.78042431 248.2266859 99.1328125 252.48828125 C99.7637674 254.90964231 99.7637674 254.90964231 101 256 C103.67702436 256.12512144 106.32952273 256.18606569 109.00805664 256.20532227 C109.84700974 256.21522186 110.68596283 256.22512146 111.55033875 256.23532104 C114.3369154 256.26703185 117.12350913 256.29173114 119.91015625 256.31640625 C121.83687292 256.33696752 123.76358499 256.35796376 125.69029236 256.37937927 C130.771823 256.43468542 135.85339492 256.48405688 140.93499756 256.53222656 C146.1162078 256.58237938 151.2973578 256.63809783 156.47851562 256.69335938 C166.65229233 256.80104537 176.82612125 256.902467 187 257 C186.67 258.32 186.34 259.64 186 261 C185.34 261 184.68 261 184 261 C183.7525 261.66 183.505 262.32 183.25 263 C181.68102205 266.76554708 179.84738882 270.36502991 178 274 C177.24897838 275.49948875 176.49893749 276.99946921 175.75 278.5 C174.88375 280.2325 174.88375 280.2325 174 282 C173.34 282 172.68 282 172 282 C171.773125 282.639375 171.54625 283.27875 171.3125 283.9375 C169.89953045 287.23442895 168.20601191 290.2566521 166.44140625 293.375 C163.80775615 298.17124084 161.41671729 303.09182159 159 308 C158.34 308 157.68 308 157 308 C156.80664062 308.61488281 156.61328125 309.22976563 156.4140625 309.86328125 C156.02347656 311.07564453 156.02347656 311.07564453 155.625 312.3125 C155.24214844 313.51326172 155.24214844 313.51326172 154.8515625 314.73828125 C154 317 154 317 152 320 C151.34 320 150.68 320 150 320 C149.5785148 321.29040758 149.5785148 321.29040758 149.14851475 322.606884 C148.76950488 323.72661228 148.39049501 324.84634056 148 326 C147.6620362 327.04380451 147.3240724 328.08760902 146.97586727 329.16304398 C145.37648843 332.86169419 143.94802872 335.2256155 141 338 C134.74074171 340.28668165 127.56546428 339.51230872 121.01977539 339.36230469 C118.95965778 339.35891836 116.8995257 339.36082263 114.8394165 339.36761475 C109.25402644 339.37105611 103.67173276 339.30054601 98.08706212 339.21672726 C92.24825985 339.14167624 86.40938536 339.13465995 80.57017517 339.12042236 C69.51640063 339.08313428 58.46405141 338.98467599 47.41090435 338.86422849 C34.82593533 338.73006758 22.24089799 338.66411315 9.65539181 338.60388327 C-16.23052882 338.47847422 -42.11518453 338.26742441 -68 338 C-67.67 336.02 -67.34 334.04 -67 332 C-66.34 332 -65.68 332 -65 332 C-64.8865625 331.27554687 -64.773125 330.55109375 -64.65625 329.8046875 C-63.96857955 326.86571498 -62.97336185 324.7524953 -61.5 322.125 C-60.96375 321.16851563 -60.4275 320.21203125 -59.875 319.2265625 C-57.40922559 314.9833757 -54.88108466 310.77955874 -52.33813477 306.58227539 C-49.05455446 301.14552766 -45.97509979 295.6118549 -43 290 C-42.34 290 -41.68 290 -41 290 C-40.8453125 288.948125 -40.8453125 288.948125 -40.6875 287.875 C-39.89945728 284.57954861 -38.67130238 281.94149219 -37 279 C-36.34 278.67 -35.68 278.34 -35 278 C-34.31666088 276.39415308 -33.6382712 274.78602822 -32.984375 273.16796875 C-31.04654063 268.90011925 -28.45860869 264.98243387 -26 261 C-25.40288208 259.70243774 -25.40288208 259.70243774 -24.79370117 258.37866211 C-23 256 -23 256 -20.1809082 255.43237305 C-19.06546631 255.45855713 -17.95002441 255.48474121 -16.80078125 255.51171875 C-14.98803711 255.53588867 -14.98803711 255.53588867 -13.13867188 255.56054688 C-11.87603516 255.60244141 -10.61339844 255.64433594 -9.3125 255.6875 C-7.40114258 255.72133789 -7.40114258 255.72133789 -5.45117188 255.75585938 C-2.2996104 255.81487738 0.84961279 255.89717025 4 256 C1.60944713 247.4251196 -1.34743411 239.7475651 -5.31640625 231.80078125 C-7.02568404 228.1790758 -8.1196134 224.46438435 -9.22094727 220.62084961 C-10.79465683 215.3266559 -12.76054015 210.15781988 -14.65820312 204.97265625 C-14.96048828 204.12832031 -15.26277344 203.28398437 -15.57421875 202.4140625 C-15.98546997 201.28411865 -15.98546997 201.28411865 -16.4050293 200.13134766 C-17 198 -17 198 -17 194 C-17.99 194 -18.98 194 -20 194 C-20.08765625 194.53367187 -20.1753125 195.06734375 -20.265625 195.6171875 C-21.25499709 198.82738419 -22.93852497 201.29882655 -24.75 204.125 C-27.17109683 207.95791329 -29.47959875 211.78058194 -31.4375 215.875 C-33.50197031 220.1707665 -35.8877435 224.19154553 -38.375 228.25 C-42.69109436 235.30359211 -46.42678047 242.54334573 -50 250 C-50.66 250 -51.32 250 -52 250 C-52.40992188 251.07701172 -52.40992188 251.07701172 -52.828125 252.17578125 C-55.93828567 259.67126847 -60.30874382 266.65033447 -64.60546875 273.515625 C-66.11039109 276.08185063 -66.11039109 276.08185063 -67.37109375 279.30859375 C-69.09376528 283.43922299 -71.44300888 287.06884774 -73.875 290.8125 C-77.19631301 296.01146674 -80.20635161 301.18656559 -82.85546875 306.765625 C-84.50768535 309.99111269 -86.53437042 312.91770702 -88.58203125 315.90234375 C-91.06022187 319.5684274 -93.34634464 323.2977725 -94.9375 327.44140625 C-95.98413225 329.96178905 -97.19174946 331.95484532 -98.75 334.1875 C-108.12676348 347.75771968 -108.12676348 347.75771968 -114 363 C-145.00711153 363.21463922 -175.99991077 362.59850097 -207 362 C-206.40078808 358.80397811 -205.80652871 356.2587075 -204.15234375 353.44921875 C-203.61577148 352.52592773 -203.61577148 352.52592773 -203.06835938 351.58398438 C-202.69517578 350.95814453 -202.32199219 350.33230469 -201.9375 349.6875 C-201.56044922 349.04232422 -201.18339844 348.39714844 -200.79492188 347.73242188 C-199.86962507 346.15121848 -198.93567319 344.5750854 -198 343 C-197.34 343 -196.68 343 -196 343 C-195.4740625 341.1128125 -195.4740625 341.1128125 -194.9375 339.1875 C-193.28213548 334.19798146 -190.71722138 330.17713768 -187.82421875 325.81640625 C-185.52165564 322.26148547 -183.54218675 318.57691392 -181.546875 314.84375 C-179.30073173 310.71447651 -176.90767477 306.67491836 -174.515625 302.62890625 C-173.25875217 300.44881498 -172.09258759 298.2655125 -171 296 C-170.34 296 -169.68 296 -169 296 C-168.67 294.783125 -168.34 293.56625 -168 292.3125 C-166.16845369 286.78313982 -163.17761043 282.17932777 -160.0625 277.2890625 C-157.63922241 273.42466907 -155.46571038 269.46276793 -153.32421875 265.4375 C-150.53852069 260.3098434 -150.53852069 260.3098434 -149 258 C-148.34 258 -147.68 258 -147 258 C-146.92910156 257.3503125 -146.85820313 256.700625 -146.78515625 256.03125 C-145.68453054 251.78206814 -143.60487113 248.29529525 -141.4375 244.5 C-140.76412598 243.30395142 -140.76412598 243.30395142 -140.07714844 242.08374023 C-136.79013126 236.28370408 -133.34050085 230.60474633 -129.8046875 224.953125 C-127.54293951 221.25208284 -125.48923755 217.45896518 -123.44140625 213.63671875 C-121.09467591 209.34391934 -118.54484081 205.1772457 -116 201 C-115.23236328 199.68128906 -115.23236328 199.68128906 -114.44921875 198.3359375 C-113 196 -113 196 -111 194 C-110.28234906 192.31787597 -109.56707582 190.63465007 -108.87011719 188.94384766 C-107.41143082 185.68513249 -105.50909895 182.71365642 -103.625 179.6875 C-101.06455791 175.5093706 -98.59965404 171.3717344 -96.5 166.9375 C-94.19946946 162.13743108 -91.31108127 157.7756531 -88.38696289 153.34301758 C-84.76411024 147.78411491 -81.8091185 142.01481844 -79 136 C-78.34 136 -77.68 136 -77 136 C-76.67 134.35 -76.34 132.7 -76 131 C-75.34 131 -74.68 131 -74 131 C-73.89115479 130.27981689 -73.78230957 129.55963379 -73.67016602 128.81762695 C-72.94674537 125.77609775 -71.84867785 123.61404725 -70.27734375 120.91796875 C-69.47006836 119.52094727 -69.47006836 119.52094727 -68.64648438 118.09570312 C-68.08251953 117.13599609 -67.51855469 116.17628906 -66.9375 115.1875 C-66.36966797 114.20845703 -65.80183594 113.22941406 -65.21679688 112.22070312 C-63.81745173 109.81006652 -62.41170071 107.4034149 -61 105 C-60.34 105 -59.68 105 -59 105 C-58.93296875 104.35546875 -58.8659375 103.7109375 -58.796875 103.046875 C-57.66041614 98.70159113 -55.47827309 95.12693758 -53.25 91.25 C-52.60417969 90.10917969 -52.60417969 90.10917969 -51.9453125 88.9453125 C-51.07731549 87.41202437 -50.20688068 85.88011366 -49.33398438 84.34960938 C-47.19485803 80.5818656 -45.09720772 76.79119289 -43 73 C-42.34 73 -41.68 73 -41 73 C-40.87625 72.195625 -40.7525 71.39125 -40.625 70.5625 C-40.41875 69.716875 -40.2125 68.87125 -40 68 C-39.34 67.67 -38.68 67.34 -38 67 C-37.33698606 65.42970383 -36.67878755 63.85727078 -36.0390625 62.27734375 C-34.2628164 58.38429308 -31.99846688 54.77390454 -29.81640625 51.09765625 C-28.18917967 48.32262253 -26.64236026 45.52356889 -25.125 42.6875 C-22.34881422 37.54339105 -19.35144656 32.55289272 -16.32128906 27.55639648 C-14.07357537 23.83533967 -11.9242979 20.08558431 -9.875 16.25 C-6.87955357 10.68583276 -3.79805692 5.06081296 0 0 Z " fill="#FCFCFC" transform="translate(844,228)"/>
<path d="M0 0 C31.35 0 62.7 0 95 0 C99.49980043 8.99960086 99.49980043 8.99960086 100.96020508 12.63549805 C101.29241562 13.45776886 101.62462616 14.28003967 101.96690369 15.12722778 C102.48795433 16.43130081 102.48795433 16.43130081 103.01953125 17.76171875 C103.39521744 18.69394257 103.77090363 19.62616638 104.15797424 20.5866394 C105.37927052 23.61901455 106.59595081 26.65321765 107.8125 29.6875 C109.08854476 32.86067679 110.36558851 36.03345045 111.64263916 39.20622253 C112.50482956 41.34864399 113.36660381 43.49123297 114.22796631 45.63398743 C116.93863535 52.37485082 119.66609279 59.10860356 122.41015625 65.8359375 C122.75071548 66.67173843 123.09127472 67.50753937 123.44215393 68.3686676 C125.36659691 73.09187448 125.36659691 73.09187448 127.29653931 77.81283569 C131.1113535 87.13080483 134.70330439 96.48483518 138 106 C130.56910015 105.03034053 130.56910015 105.03034053 127.1171875 103.80078125 C126.43591797 103.56423828 125.75464844 103.32769531 125.05273438 103.08398438 C123.97475586 102.70209961 123.97475586 102.70209961 122.875 102.3125 C116.13611847 99.99126725 109.36571812 97.91261998 102.5 96 C95.93558839 94.1660548 89.44874302 92.20677235 83 90 C76.69382903 87.844223 70.35505476 85.92136038 63.9375 84.125 C61.2700751 83.36460172 58.60361097 82.60092957 55.9375 81.8359375 C53.8590687 81.24446902 51.77806164 80.66201705 49.6953125 80.0859375 C46.26643197 79.12958307 42.85209038 78.13104722 39.4375 77.125 C37.82186157 76.68824951 37.82186157 76.68824951 36.17358398 76.24267578 C34.66260132 75.78610596 34.66260132 75.78610596 33.12109375 75.3203125 C32.2283374 75.06523926 31.33558105 74.81016602 30.41577148 74.54736328 C26.71866089 72.1792696 25.63670224 68.97701206 24 65 C23.65655045 64.16651031 23.31310089 63.33302063 22.95924377 62.47427368 C21.82081029 59.63374058 20.7209025 56.78057071 19.62890625 53.921875 C19.22469955 52.87404846 18.82049286 51.82622192 18.40403748 50.74664307 C17.11978327 47.41585506 15.84082739 44.08306665 14.5625 40.75 C13.28693088 37.43153667 12.01018801 34.11353357 10.73167419 30.79620361 C9.93946588 28.73992569 9.14902129 26.68296699 8.36073303 24.62518311 C6.02489801 18.5531975 3.55517738 12.56314057 0.93540955 6.60748291 C0 4 0 4 0 0 Z " fill="#F34C49" transform="translate(889,591)"/>
<path d="M0 0 C6.61544169 4.0403988 12.20755229 10.44151937 14.22265625 17.98828125 C15.88607756 28.63094767 15.02097223 38.32288323 9.375 47.62109375 C5.5753608 52.64050349 0.61996252 55.74633173 -5.375 57.5625 C-13.34516699 58.58339779 -20.79836365 58.54300887 -27.375 53.5625 C-33.2427936 49.0013491 -36.77153333 43.85874775 -38.375 36.5625 C-39.46352179 25.50895397 -38.61585097 15.87846095 -31.75 6.75 C-23.64806402 -1.75501737 -11.00056388 -4.67740512 0 0 Z " fill="#030303" transform="translate(944.375,774.4375)"/>
<path d="M0 0 C2 3 2 3 2 7 C0 8.8125 0 8.8125 -3 10 C-4.97265625 9.8203125 -4.97265625 9.8203125 -7.0625 9.4375 C-10.88585581 8.5953657 -10.88585581 8.5953657 -13.25 10.4375 C-15.16664611 13.24401752 -16.60670208 16.08820644 -17.97265625 19.1953125 C-19 21 -19 21 -22 23 C-20.5459375 23.680625 -20.5459375 23.680625 -19.0625 24.375 C-16 26 -16 26 -15 28 C-15.33 28.33 -15.66 28.66 -16 29 C-15.34773437 28.95359375 -14.69546875 28.9071875 -14.0234375 28.859375 C-8.13923629 28.61636964 -4.5886933 28.88194191 0 33 C0.33 33.99 0.66 34.98 1 36 C2.75875658 32.48248683 1.86562583 28.0036584 1.609375 24.1171875 C1.48970186 20.09317815 1.79727292 17.73914244 4.3984375 14.5703125 C7.82677986 11.18315143 9.41985648 10.18589924 14.1875 9.625 C19.60644087 10.15801058 24.57033856 11.95481246 28.77734375 15.49609375 C30 17 30 17 29.8125 19.25 C29.21314472 21.2785871 28.58356356 23.29830184 27.9375 25.3125 C26.88550071 29.45036388 26.85098708 32.75313177 27 37 C26.34 37 25.68 37 25 37 C24.814375 37.8971875 24.814375 37.8971875 24.625 38.8125 C24 41 24 41 22 44 C20.865625 43.938125 19.73125 43.87625 18.5625 43.8125 C12.50080147 43.5695904 7.95017909 46.82914796 3 50 C2.39800781 50.38285156 1.79601562 50.76570312 1.17578125 51.16015625 C-5.05577826 55.72342424 -9.07170732 63.67428997 -11 71 C-11.13474123 73.66787642 -11.19197861 76.21646441 -11.125 78.875 C-11.11597656 79.56335938 -11.10695313 80.25171875 -11.09765625 80.9609375 C-11.07432513 82.64077838 -11.03846326 84.32043746 -11 86 C-12.89149657 84.10850343 -13.71622398 82.80176972 -14.875 80.4453125 C-15.22046875 79.74792969 -15.5659375 79.05054688 -15.921875 78.33203125 C-16.45554687 77.23955078 -16.45554687 77.23955078 -17 76.125 C-17.35578125 75.40441406 -17.7115625 74.68382812 -18.078125 73.94140625 C-18.74402476 72.59221383 -19.40827428 71.24220472 -20.0703125 69.89111328 C-20.72526803 68.55884292 -21.40768388 67.23989925 -22.109375 65.93164062 C-23.31412584 63.31870514 -23.12319412 61.23156369 -23 58.375 C-22.83273946 55.53612762 -22.83273946 55.53612762 -23 53 C-23.66 52.34 -24.32 51.68 -25 51 C-25.60311615 49.31238142 -26.13850237 47.59985524 -26.625 45.875 C-27.01558594 44.50988281 -27.01558594 44.50988281 -27.4140625 43.1171875 C-27.60742188 42.41851563 -27.80078125 41.71984375 -28 41 C-28.66 41 -29.32 41 -30 41 C-34.56789715 36.08951057 -36.61132329 31.01264203 -37.40625 24.33984375 C-36.74337046 18.8902091 -33.47284771 16.03147822 -29.421875 12.65234375 C-28.28537961 11.76292696 -27.14460213 10.87895959 -26 10 C-25.40896484 9.52836426 -24.81792969 9.05672852 -24.20898438 8.57080078 C-22.40919021 7.1436278 -20.58885557 5.75140825 -18.75 4.375 C-17.90211914 3.73558472 -17.90211914 3.73558472 -17.03710938 3.08325195 C-11.83458766 -0.59076403 -6.15893279 -2.1116341 0 0 Z " fill="#F9F9F9" transform="translate(906,724)"/>
<path d="M0 0 C2.64 0 5.28 0 8 0 C9.60062403 4.56876286 10.83813914 9.17493886 11.9453125 13.8828125 C12.12005096 14.61950165 12.29478943 15.3561908 12.474823 16.11520386 C12.84092145 17.66289231 13.20557381 19.21092347 13.56884766 20.75927734 C14.12522684 23.12596492 14.6893304 25.49072488 15.25390625 27.85546875 C15.60984546 29.36447244 15.96532998 30.87358347 16.3203125 32.3828125 C16.48902863 33.08705353 16.65774475 33.79129456 16.83157349 34.51687622 C17.59727515 37.80979975 18 40.59242667 18 44 C18.66 44 19.32 44 20 44 C20.09539063 42.94554687 20.19078125 41.89109375 20.2890625 40.8046875 C21.04614627 34.76661239 22.75609782 28.97846862 24.375 23.125 C24.67921875 22.00480469 24.9834375 20.88460937 25.296875 19.73046875 C27.10113355 13.12256458 29.00367579 6.55235246 31 0 C33.97 0 36.94 0 40 0 C40.94444147 3.87310138 41.88626706 7.74682965 42.82592773 11.62109375 C43.29866576 13.56802486 43.77332741 15.51448858 44.24804688 17.4609375 C46.30491578 25.94822815 48.21501305 34.45159238 50 43 C52.85983788 32.81410934 55.66254546 22.61800246 58.29956055 12.37182617 C59.38543095 8.18772596 60.57532735 4.08536267 62 0 C64.64 0 67.28 0 70 0 C68.34791691 9.3431366 65.7093241 18.3396965 63.0625 27.4375 C62.3942049 29.74758713 61.72707163 32.05800631 61.06039429 34.36856079 C60.63094119 35.8562579 60.20063927 37.34371026 59.7694397 38.8309021 C58.30110623 43.90706224 56.90529854 48.99895887 55.57592773 54.11352539 C55 56 55 56 54 57 C51.32941149 57.14115161 48.67567762 57.04247107 46 57 C42.84404076 48.32857886 40.88117702 39.41416366 38.8125 30.4375 C38.44114636 28.84040379 38.06940478 27.24339773 37.69726562 25.64648438 C36.79369934 21.76534823 35.89539789 17.8830284 35 14 C30.98342286 28.32875156 26.97432423 42.65946604 23 57 C20.03 57 17.06 57 14 57 C6.81899827 30.5526007 6.81899827 30.5526007 3.84375 18.43359375 C3.2728136 16.11019979 2.689103 13.78991383 2.09375 11.47265625 C1.67609375 9.84650391 1.67609375 9.84650391 1.25 8.1875 C1.00765625 7.25292969 0.7653125 6.31835938 0.515625 5.35546875 C0 3 0 3 0 0 Z " fill="#EFEFEF" transform="translate(980,774)"/>
<path d="M0 0 C3.3 0 6.6 0 10 0 C12.06408748 5.90375058 14.12702949 11.80789977 16.18896484 17.71240234 C16.88885442 19.71608989 17.58904315 21.71967297 18.28955078 23.72314453 C29 54.35716833 29 54.35716833 29 57 C26.36 57 23.72 57 21 57 C19.9936345 54.56495491 18.99473587 52.12729136 18 49.6875 C17.71382812 48.99720703 17.42765625 48.30691406 17.1328125 47.59570312 C15.91089256 44.58454326 15 42.28113016 15 39 C8.07 39 1.14 39 -6 39 C-6.66 41.97 -7.32 44.94 -8 48 C-8.50777158 49.69800679 -9.04070202 51.38928307 -9.625 53.0625 C-9.88539063 53.81660156 -10.14578125 54.57070313 -10.4140625 55.34765625 C-10.60742188 55.89292969 -10.80078125 56.43820312 -11 57 C-13.64 57 -16.28 57 -19 57 C-17.08672419 49.68773366 -14.91996178 42.51727548 -12.4609375 35.37109375 C-12.13461334 34.41477554 -11.80828918 33.45845734 -11.47207642 32.47315979 C-10.78961672 30.47529578 -10.10555011 28.47798001 -9.41992188 26.48120117 C-8.36733481 23.41517244 -7.31999417 20.34738865 -6.2734375 17.27929688 C-5.6070729 15.33062585 -4.94041691 13.38205443 -4.2734375 11.43359375 C-3.95990326 10.51597763 -3.64636902 9.59836151 -3.32333374 8.65293884 C-3.03278107 7.80768143 -2.74222839 6.96242401 -2.44287109 6.09155273 C-2.06006485 4.97549904 -2.06006485 4.97549904 -1.66952515 3.8368988 C-1 2 -1 2 0 0 Z " fill="#F2F2F2" transform="translate(625,774)"/>
<path d="M0 0 C6.61544169 4.0403988 12.20755229 10.44151937 14.22265625 17.98828125 C15.88607756 28.63094767 15.02097223 38.32288323 9.375 47.62109375 C5.5753608 52.64050349 0.61996252 55.74633173 -5.375 57.5625 C-13.34516699 58.58339779 -20.79836365 58.54300887 -27.375 53.5625 C-33.2427936 49.0013491 -36.77153333 43.85874775 -38.375 36.5625 C-39.46352179 25.50895397 -38.61585097 15.87846095 -31.75 6.75 C-23.64806402 -1.75501737 -11.00056388 -4.67740512 0 0 Z M-26.25 11.75 C-31.3269417 19.87996745 -31.16773742 29.3760467 -29.375 38.5625 C-27.25389524 43.74416077 -24.33395066 47.37193727 -19.4375 50.125 C-14.91759347 51.98613798 -11.01323019 52.49159425 -6.30078125 50.83203125 C-0.3569956 48.14029838 2.44723931 44.91802138 5.375 39.0625 C7.84299961 31.84939618 7.84658381 23.59798894 4.875 16.5625 C1.54750787 10.23214912 -1.36431581 6.82017796 -8.375 4.5625 C-15.59459129 3.64364293 -21.72182733 6.02319339 -26.25 11.75 Z " fill="#F3F3F3" transform="translate(944.375,774.4375)"/>
<path d="M0 0 C10.23 0 20.46 0 31 0 C31 1.98 31 3.96 31 6 C23.41 6 15.82 6 8 6 C8 11.94 8 17.88 8 24 C15.26 24 22.52 24 30 24 C30 25.98 30 27.96 30 30 C22.74 30 15.48 30 8 30 C8 36.93 8 43.86 8 51 C16.25 51 24.5 51 33 51 C33 52.98 33 54.96 33 57 C22.11 57 11.22 57 0 57 C0 38.19 0 19.38 0 0 Z " fill="#F8F8F8" transform="translate(738,774)"/>
<path d="M0 0 C1.21429687 -0.01417969 2.42859375 -0.02835938 3.6796875 -0.04296875 C6.96844421 0.17702745 9.17865948 0.77034382 12.125 2.1875 C11.795 4.4975 11.465 6.8075 11.125 9.1875 C10.43664062 9.02765625 9.74828125 8.8678125 9.0390625 8.703125 C5.81975566 8.13348894 2.76856706 7.98258368 -0.5 7.9375 C-1.62664063 7.91171875 -2.75328125 7.8859375 -3.9140625 7.859375 C-6.83843285 7.94977951 -6.83843285 7.94977951 -8.7421875 9.45703125 C-10.33288346 11.88695646 -10.33716665 14.3068538 -10.46875 17.15234375 C-9.53603154 20.349359 -7.59521459 21.3557426 -4.875 23.1875 C-1.37385734 24.96238482 2.17705137 26.58616991 5.75 28.2109375 C10.41414734 30.94248675 13.3763255 33.94147651 15.125 39.1875 C15.52180449 44.44515945 15.01998146 47.74852842 12.125 52.1875 C5.21015007 58.80170428 -0.1510784 59.56469342 -9.46875 59.45703125 C-13.62522968 59.1281355 -16.28553948 58.23862029 -19.875 56.1875 C-19.545 53.8775 -19.215 51.5675 -18.875 49.1875 C-18.18535156 49.41566406 -17.49570312 49.64382813 -16.78515625 49.87890625 C-9.56544427 52.08740525 -3.44372346 53.24342556 3.625 50.0625 C5.93469132 47.17538585 6.06212176 44.83443794 6.125 41.1875 C4.79805404 37.38358824 2.97761823 35.92977979 -0.5 34.1875 C-1.9570819 33.51810259 -3.41549589 32.85159962 -4.875 32.1875 C-11.0049681 29.14261421 -15.69976113 26.53797773 -18.875 20.1875 C-19.29995098 16.02788367 -19.34338248 12.33243495 -17.75 8.4375 C-12.57590176 2.22858211 -8.13183378 0.04298009 0 0 Z " fill="#F0F0F0" transform="translate(696.875,772.8125)"/>
<path d="M0 0 C10.23 0 20.46 0 31 0 C31 1.98 31 3.96 31 6 C23.41 6 15.82 6 8 6 C8 12.27 8 18.54 8 25 C15.26 25 22.52 25 30 25 C30 26.98 30 28.96 30 31 C22.74 31 15.48 31 8 31 C8 39.58 8 48.16 8 57 C5.36 57 2.72 57 0 57 C0 38.19 0 19.38 0 0 Z " fill="#F6F6F6" transform="translate(797,774)"/>
<path d="M0 0 C2.64 0 5.28 0 8 0 C8 16.83 8 33.66 8 51 C15.92 51 23.84 51 32 51 C32 52.98 32 54.96 32 57 C21.44 57 10.88 57 0 57 C0 38.19 0 19.38 0 0 Z " fill="#F5F5F5" transform="translate(855,774)"/>
<path d="M0 0 C2.69990662 1.79993774 4.5418865 3.083773 6 6 C6.40391526 9.63523738 6.23463713 11.56005537 4.5 14.8125 C0.93644266 17.93061267 -1.28941825 17.92522886 -6 18 C-6.99 17.34 -7.98 16.68 -9 16 C-9.33 18.64 -9.66 21.28 -10 24 C-10.66 24 -11.32 24 -12 24 C-12 16.41 -12 8.82 -12 1 C-10.68 1 -9.36 1 -8 1 C-5.14675563 -0.42662219 -3.16545451 -0.31033868 0 0 Z " fill="#0A0202" transform="translate(697,891)"/>
<path d="M0 0 C2.69990662 1.79993774 4.5418865 3.083773 6 6 C6.53252058 9.99390436 6.35389756 11.51741242 3.9375 14.8125 C0.47175104 17.39337688 -1.70657534 17.92049214 -6 18 C-6.99 17.34 -7.98 16.68 -9 16 C-9.33 18.64 -9.66 21.28 -10 24 C-10.66 24 -11.32 24 -12 24 C-12 16.41 -12 8.82 -12 1 C-10.68 1 -9.36 1 -8 1 C-5.14675563 -0.42662219 -3.16545451 -0.31033868 0 0 Z " fill="#0A0202" transform="translate(928,891)"/>
<path d="M0 0 C2.69990662 1.79993774 4.5418865 3.083773 6 6 C6.53252058 9.99390436 6.35389756 11.51741242 3.9375 14.8125 C0.47175104 17.39337688 -1.70657534 17.92049214 -6 18 C-6.99 17.34 -7.98 16.68 -9 16 C-9.33 18.64 -9.66 21.28 -10 24 C-10.66 24 -11.32 24 -12 24 C-12 16.41 -12 8.82 -12 1 C-10.68 1 -9.36 1 -8 1 C-5.14675563 -0.42662219 -3.16545451 -0.31033868 0 0 Z " fill="#0B0203" transform="translate(802,891)"/>
<path d="M0 0 C0.66 0.33 1.32 0.66 2 1 C1.48050781 1.40089844 0.96101562 1.80179688 0.42578125 2.21484375 C-6.74248954 8.0581107 -11.28277698 14.78944016 -13 24 C-13.88500777 37.25628656 -10.91452499 48.17095001 -5 60 C-11.34514001 57.29691345 -15.90821812 51.63847288 -18.5 45.375 C-20.26150865 34.7635021 -20.27858889 23.01503056 -14.55859375 13.63671875 C-10.50819509 8.04510111 -5.61652193 3.96085787 0 0 Z " fill="#EEEEEE" transform="translate(916,770)"/>
<path d="M0 0 C11 0 11 0 15 3 C15.52979878 6.5572204 15.43204232 8.31593299 13.5 11.375 C13.005 11.91125 12.51 12.4475 12 13 C12.474375 13.721875 12.94875 14.44375 13.4375 15.1875 C14.94152903 17.89475226 15.56599182 19.96194275 16 23 C15.01 23 14.02 23 13 23 C12.79503906 22.43410156 12.59007812 21.86820313 12.37890625 21.28515625 C12.10949219 20.55167969 11.84007812 19.81820312 11.5625 19.0625 C11.29566406 18.33160156 11.02882813 17.60070312 10.75390625 16.84765625 C10.14613052 15.01694322 10.14613052 15.01694322 9 14 C6.67182036 13.63239269 4.3381615 13.29758419 2 13 C2 16.3 2 19.6 2 23 C1.34 23 0.68 23 0 23 C0 15.41 0 7.82 0 0 Z " fill="#DD4441" transform="translate(649,885)"/>
<path d="M0 0 C2 1 2 1 2.86962891 3.1171875 C3.15241699 4.02726563 3.43520508 4.93734375 3.7265625 5.875 C4.0359375 6.85984375 4.3453125 7.8446875 4.6640625 8.859375 C4.98117187 9.89578125 5.29828125 10.9321875 5.625 12 C5.94984375 13.03640625 6.2746875 14.0728125 6.609375 15.140625 C9 22.81473214 9 22.81473214 9 24 C3.72 24 -1.56 24 -7 24 C-6.27429304 18.92005129 -5.8428197 16.31511098 -3.83203125 11.9765625 C-2.20326326 8.10728267 -1.14443128 4.03391735 0 0 Z " fill="#050505" transform="translate(629,783)"/>
<path d="M0 0 C2.875 2.25 2.875 2.25 5 5 C5 6.32 5 7.64 5 9 C0.38 9 -4.24 9 -9 9 C-7.66436384 13.94463635 -7.66436384 13.94463635 -5 15 C-3.45976004 15.06950541 -1.91665012 15.08452357 -0.375 15.0625 C0.44226563 15.05347656 1.25953125 15.04445313 2.1015625 15.03515625 C2.72804688 15.02355469 3.35453125 15.01195312 4 15 C4 15.66 4 16.32 4 17 C-3.96521673 18.44033331 -3.96521673 18.44033331 -7.9375 16.75 C-10.69853179 14.40730636 -11.90314249 12.74257427 -12.375 9.125 C-11.91377729 5.28147742 -10.66559892 3.74399889 -8 1 C-5.11138291 -0.44430855 -3.20352299 -0.37688506 0 0 Z " fill="#D13F3D" transform="translate(952,891)"/>
<path d="M0 0 C2.875 2.25 2.875 2.25 5 5 C5 6.32 5 7.64 5 9 C0.38 9 -4.24 9 -9 9 C-7.66436384 13.94463635 -7.66436384 13.94463635 -5 15 C-3.45976004 15.06950541 -1.91665012 15.08452357 -0.375 15.0625 C0.44226563 15.05347656 1.25953125 15.04445313 2.1015625 15.03515625 C2.72804688 15.02355469 3.35453125 15.01195312 4 15 C4 15.66 4 16.32 4 17 C-3.96521673 18.44033331 -3.96521673 18.44033331 -7.9375 16.75 C-10.69853179 14.40730636 -11.90314249 12.74257427 -12.375 9.125 C-11.91377729 5.28147742 -10.66559892 3.74399889 -8 1 C-5.11138291 -0.44430855 -3.20352299 -0.37688506 0 0 Z " fill="#B73634" transform="translate(903,891)"/>
<path d="M0 0 C2.1796875 1.06640625 2.1796875 1.06640625 4 3 C4.390625 6.35546875 4.390625 6.35546875 4.25 10.1875 C4.21390625 11.45980469 4.1778125 12.73210938 4.140625 14.04296875 C4.07101562 15.50669922 4.07101562 15.50669922 4 17 C2.41986783 17.25028811 0.83557694 17.47440946 -0.75 17.6875 C-2.07257812 17.87892578 -2.07257812 17.87892578 -3.421875 18.07421875 C-6.55676517 17.98397191 -7.71823587 17.07384637 -10 15 C-9.68306247 12.06832781 -9.36774166 10.41017339 -7.375 8.1875 C-4.1686245 6.58431225 -1.53249148 6.79620241 2 7 C1.67 6.01 1.34 5.02 1 4 C-2.153368 3.29925156 -4.72724974 3 -8 3 C-8 2.34 -8 1.68 -8 1 C-5.19084526 -0.40457737 -3.11189466 -0.24895157 0 0 Z " fill="#E24543" transform="translate(973,891)"/>
<path d="M0 0 C2.69990662 1.79993774 4.5418865 3.083773 6 6 C6.40391526 9.63523738 6.23463713 11.56005537 4.5 14.8125 C0.93644266 17.93061267 -1.28941825 17.92522886 -6 18 C-6.99 17.34 -7.98 16.68 -9 16 C-9.33 18.64 -9.66 21.28 -10 24 C-10.66 24 -11.32 24 -12 24 C-12 16.41 -12 8.82 -12 1 C-10.68 1 -9.36 1 -8 1 C-5.14675563 -0.42662219 -3.16545451 -0.31033868 0 0 Z M-8.25 3.625 C-10.21985834 5.92308586 -10.21985834 5.92308586 -10.5 9 C-10.1942241 12.04923991 -10.1942241 12.04923991 -8.4375 14.4375 C-5.97332719 16.34287189 -5.97332719 16.34287189 -2.375 15.875 C1.04542055 15.29259286 1.04542055 15.29259286 3 13 C3.45935016 8.94312801 3.45935016 8.94312801 3 5 C-0.56091178 1.83474508 -4.11404893 0.63792423 -8.25 3.625 Z " fill="#BB3836" transform="translate(697,891)"/>
<path d="M0 0 C2.69990662 1.79993774 4.5418865 3.083773 6 6 C6.53252058 9.99390436 6.35389756 11.51741242 3.9375 14.8125 C0.47175104 17.39337688 -1.70657534 17.92049214 -6 18 C-6.99 17.34 -7.98 16.68 -9 16 C-9.33 18.64 -9.66 21.28 -10 24 C-10.66 24 -11.32 24 -12 24 C-12 16.41 -12 8.82 -12 1 C-10.68 1 -9.36 1 -8 1 C-5.14675563 -0.42662219 -3.16545451 -0.31033868 0 0 Z M-8.25 3.625 C-10.21985834 5.92308586 -10.21985834 5.92308586 -10.5 9 C-10.1942241 12.04923991 -10.1942241 12.04923991 -8.4375 14.4375 C-5.97332719 16.34287189 -5.97332719 16.34287189 -2.375 15.875 C1.04542055 15.29259286 1.04542055 15.29259286 3 13 C3.45935016 8.94312801 3.45935016 8.94312801 3 5 C-0.56091178 1.83474508 -4.11404893 0.63792423 -8.25 3.625 Z " fill="#D2403E" transform="translate(928,891)"/>
<path d="M0 0 C2.69990662 1.79993774 4.5418865 3.083773 6 6 C6.53252058 9.99390436 6.35389756 11.51741242 3.9375 14.8125 C0.47175104 17.39337688 -1.70657534 17.92049214 -6 18 C-6.99 17.34 -7.98 16.68 -9 16 C-9.33 18.64 -9.66 21.28 -10 24 C-10.66 24 -11.32 24 -12 24 C-12 16.41 -12 8.82 -12 1 C-10.68 1 -9.36 1 -8 1 C-5.14675563 -0.42662219 -3.16545451 -0.31033868 0 0 Z M-8.25 3.625 C-10.21985834 5.92308586 -10.21985834 5.92308586 -10.5 9 C-10.1942241 12.04923991 -10.1942241 12.04923991 -8.4375 14.4375 C-5.97332719 16.34287189 -5.97332719 16.34287189 -2.375 15.875 C1.04542055 15.29259286 1.04542055 15.29259286 3 13 C3.45935016 8.94312801 3.45935016 8.94312801 3 5 C-0.56091178 1.83474508 -4.11404893 0.63792423 -8.25 3.625 Z " fill="#BB3836" transform="translate(802,891)"/>
<path d="M0 0 C0.66 0.33 1.32 0.66 2 1 C1.34773437 1.47308594 0.69546875 1.94617188 0.0234375 2.43359375 C-7.45478365 8.09189382 -13.75148956 14.06791439 -15.70703125 23.61328125 C-16.25361457 28.06611339 -16.46437101 32.54306314 -16.65625 37.0234375 C-17 40 -17 40 -19 42 C-21.4091728 31.24686287 -20.26602731 22.34556578 -14.75 12.84765625 C-10.89856066 7.14708836 -5.75709105 3.64084809 0 0 Z " fill="#212121" transform="translate(914,770)"/>
<path d="M0 0 C1.258125 -0.04125 2.51625 -0.0825 3.8125 -0.125 C4.52019531 -0.14820313 5.22789062 -0.17140625 5.95703125 -0.1953125 C8 0 8 0 11 2 C10.25 6.75 10.25 6.75 8 9 C5.31160615 9.26991906 2.70858064 9.08737357 0 9 C0 6.03 0 3.06 0 0 Z " fill="#0B0202" transform="translate(651,887)"/>
<path d="M0 0 C0.66 0 1.32 0 2 0 C2 1.65 2 3.3 2 5 C3.65 5 5.3 5 7 5 C7 5.66 7 6.32 7 7 C5.35 7 3.7 7 2 7 C2.33 10.96 2.66 14.92 3 19 C4.32 19.33 5.64 19.66 7 20 C7 20.66 7 21.32 7 22 C4.6875 22.25 4.6875 22.25 2 22 C-0.26523786 19.73476214 -0.95684847 18.41195331 -1.29296875 15.203125 C-1.25816406 14.22859375 -1.22335937 13.2540625 -1.1875 12.25 C-1.16042969 11.26515625 -1.13335938 10.2803125 -1.10546875 9.265625 C-1.07066406 8.51796875 -1.03585937 7.7703125 -1 7 C-1.99 7 -2.98 7 -4 7 C-4 6.34 -4 5.68 -4 5 C-2.68 5 -1.36 5 0 5 C0 3.35 0 1.7 0 0 Z " fill="#B83735" transform="translate(735,887)"/>
<path d="M0 0 C0.33 0.99 0.66 1.98 1 3 C-0.98 3 -2.96 3 -5 3 C-5.33 4.32 -5.66 5.64 -6 7 C-3.69 7.66 -1.38 8.32 1 9 C1.33 10.98 1.66 12.96 2 15 C0.4375 16.5625 0.4375 16.5625 -2 18 C-5.75 17.6875 -5.75 17.6875 -9 17 C-9 16.34 -9 15.68 -9 15 C-6.69 15 -4.38 15 -2 15 C-2 13.68 -2 12.36 -2 11 C-3.4540625 10.4121875 -3.4540625 10.4121875 -4.9375 9.8125 C-8 8 -8 8 -8.875 5.3125 C-8.91625 4.549375 -8.9575 3.78625 -9 3 C-5.92807025 0.26939578 -4.09590633 -0.34132553 0 0 Z " fill="#CA3D3B" transform="translate(768,891)"/>
<path d="M0 0 C0.66 0.33 1.32 0.66 2 1 C2 2.32 2 3.64 2 5 C-2.62 5 -7.24 5 -12 5 C-10.66436384 9.94463635 -10.66436384 9.94463635 -8 11 C-6.45976004 11.06950541 -4.91665012 11.08452357 -3.375 11.0625 C-2.55773437 11.05347656 -1.74046875 11.04445313 -0.8984375 11.03515625 C-0.27195312 11.02355469 0.35453125 11.01195312 1 11 C1 11.66 1 12.32 1 13 C-6.96521673 14.44033331 -6.96521673 14.44033331 -10.9375 12.75 C-13 11 -13 11 -15 8 C-15.125 4.8125 -15.125 4.8125 -15 2 C-14.01 1.67 -13.02 1.34 -12 1 C-12 1.99 -12 2.98 -12 4 C-8.04 4 -4.08 4 0 4 C0 2.68 0 1.36 0 0 Z " fill="#D2403D" transform="translate(906,895)"/>
<path d="M0 0 C0.66 0 1.32 0 2 0 C2 1.65 2 3.3 2 5 C3.65 5 5.3 5 7 5 C7 5.66 7 6.32 7 7 C5.35 7 3.7 7 2 7 C2.33 10.96 2.66 14.92 3 19 C4.32 19.33 5.64 19.66 7 20 C7 20.66 7 21.32 7 22 C4.625 22.125 4.625 22.125 2 22 C0 20 0 20 -0.1953125 16.7421875 C-0.17210937 15.46601562 -0.14890625 14.18984375 -0.125 12.875 C-0.10695313 11.59367188 -0.08890625 10.31234375 -0.0703125 8.9921875 C-0.04710937 8.00476563 -0.02390625 7.01734375 0 6 C-0.99 5.67 -1.98 5.34 -3 5 C-2.01 5 -1.02 5 0 5 C0 3.35 0 1.7 0 0 Z " fill="#CB3D3B" transform="translate(987,887)"/>
<path d="M0 0 C0.66 0 1.32 0 2 0 C2 1.65 2 3.3 2 5 C3.65 5 5.3 5 7 5 C7 5.66 7 6.32 7 7 C5.35 7 3.7 7 2 7 C2.33 10.96 2.66 14.92 3 19 C4.32 19.33 5.64 19.66 7 20 C7 20.66 7 21.32 7 22 C4.625 22.125 4.625 22.125 2 22 C0 20 0 20 -0.1953125 16.7421875 C-0.17210937 15.46601562 -0.14890625 14.18984375 -0.125 12.875 C-0.10695313 11.59367188 -0.08890625 10.31234375 -0.0703125 8.9921875 C-0.04710937 8.00476563 -0.02390625 7.01734375 0 6 C-0.99 5.67 -1.98 5.34 -3 5 C-2.01 5 -1.02 5 0 5 C0 3.35 0 1.7 0 0 Z " fill="#CB3D3B" transform="translate(841,887)"/>
<path d="M0 0 C1.670625 0.061875 1.670625 0.061875 3.375 0.125 C2.625 4.875 2.625 4.875 0.375 7.125 C-2.25 7.25 -2.25 7.25 -4.625 7.125 C-5.25 4.75 -5.25 4.75 -5.625 2.125 C-3.625 0.125 -3.625 0.125 0 0 Z " fill="#0C0303" transform="translate(971.625,899.875)"/>
<path d="M0 0 C0.66 0 1.32 0 2 0 C2 0.66 2 1.32 2 2 C2.66 2.33 3.32 2.66 4 3 C3.67 3.66 3.34 4.32 3 5 C2.84995027 6.3734635 2.75161994 7.7528526 2.68359375 9.1328125 C2.64169922 9.93847656 2.59980469 10.74414062 2.55664062 11.57421875 C2.49766602 12.83685547 2.49766602 12.83685547 2.4375 14.125 C2.39431641 14.97449219 2.35113281 15.82398438 2.30664062 16.69921875 C2.20045764 18.79928223 2.09971503 20.89961948 2 23 C1.34 23 0.68 23 0 23 C0 15.41 0 7.82 0 0 Z " fill="#F04B48" transform="translate(790,892)"/>
<path d="M0 0 C0.66 0 1.32 0 2 0 C3.32575494 4.82181981 2.90062439 9.38832067 2.5625 14.3125 C2.51029297 15.14845703 2.45808594 15.98441406 2.40429688 16.84570312 C2.27532629 18.89750789 2.13844979 20.94881306 2 23 C1.34 23 0.68 23 0 23 C0 15.41 0 7.82 0 0 Z " fill="#F14B48" transform="translate(916,892)"/>
<path d="M0 0 C0.66 0 1.32 0 2 0 C3.32575494 4.82181981 2.90062439 9.38832067 2.5625 14.3125 C2.51029297 15.14845703 2.45808594 15.98441406 2.40429688 16.84570312 C2.27532629 18.89750789 2.13844979 20.94881306 2 23 C1.34 23 0.68 23 0 23 C0 15.41 0 7.82 0 0 Z " fill="#F14B48" transform="translate(685,892)"/>
<path d="M0 0 C0.99 0 1.98 0 3 0 C3 0.99 3 1.98 3 3 C1.35 3.66 -0.3 4.32 -2 5 C-2.33 8.96 -2.66 12.92 -3 17 C-3.66 17 -4.32 17 -5 17 C-5 11.72 -5 6.44 -5 1 C-3.68 1 -2.36 1 -1 1 C-0.67 0.67 -0.34 0.34 0 0 Z " fill="#E34643" transform="translate(883,891)"/>
<path d="M0 0 C0.05382106 2.62527189 0.09358313 5.24944713 0.125 7.875 C0.14175781 8.62136719 0.15851562 9.36773438 0.17578125 10.13671875 C0.1933959 12.09194461 0.10320189 14.04742021 0 16 C-0.66 16.66 -1.32 17.32 -2 18 C-2.90413673 14.16275828 -3.10576898 10.62497726 -3.0625 6.6875 C-3.05347656 5.61886719 -3.04445313 4.55023437 -3.03515625 3.44921875 C-3.02355469 2.64097656 -3.01195312 1.83273437 -3 1 C-1 0 -1 0 0 0 Z " fill="#2A2A2A" transform="translate(897,794)"/>
<path d="M0 0 C0 0.33 0 0.66 0 1 C-2.31 1.33 -4.62 1.66 -7 2 C-7.33 3.65 -7.66 5.3 -8 7 C-6.35 7.33 -4.7 7.66 -3 8 C-3.33 8.66 -3.66 9.32 -4 10 C-9.75 9.25 -9.75 9.25 -12 7 C-11.84418468 3.96160126 -11.37644136 2.43435542 -9.375 0.125 C-6.00901647 -1.46941325 -3.56578737 -0.75430117 0 0 Z " fill="#C83D3A" transform="translate(975,899)"/>
<path d="M0 0 C0.33 1.32 0.66 2.64 1 4 C-2.63 4 -6.26 4 -10 4 C-7.11599467 -1.76801067 -5.91158408 -1.15661428 0 0 Z " fill="#070101" transform="translate(904,894)"/>
<path d="M0 0 C0.33 1.32 0.66 2.64 1 4 C-2.63 4 -6.26 4 -10 4 C-7.26826666 -1.46346667 -5.50804693 -1.3397952 0 0 Z " fill="#060101" transform="translate(953,894)"/>
<path d="M0 0 C2.4375 1.75 2.4375 1.75 4 4 C3.67 5.32 3.34 6.64 3 8 C-0.96 8 -4.92 8 -9 8 C-9 7.67 -9 7.34 -9 7 C-5.37 7 -1.74 7 2 7 C1.67 6.01 1.34 5.02 1 4 C-2.153368 3.29925156 -4.72724974 3 -8 3 C-8 2.34 -8 1.68 -8 1 C-5.15916359 -0.42041821 -3.14522722 -0.31452272 0 0 Z " fill="#B23533" transform="translate(952,891)"/>
<path d="M0 0 C0.33 0 0.66 0 1 0 C1.35820896 6.32835821 1.35820896 6.32835821 0 8.875 C-3.17323438 10.65994434 -6.36609726 11.27784367 -10 11 C-12.5 9.0625 -12.5 9.0625 -14 7 C-13.39671875 7.11859375 -12.7934375 7.2371875 -12.171875 7.359375 C-7.06771714 8.31395064 -7.06771714 8.31395064 -2.5 6.3125 C-1.08156578 4.12574725 -0.36613301 2.56293104 0 0 Z " fill="#D1403D" transform="translate(701,898)"/>
<path d="M0 0 C0.33 0 0.66 0 1 0 C1.375 3.25 1.375 3.25 1 7 C-1.5625 9.5 -1.5625 9.5 -5 11 C-8.75 10.9375 -8.75 10.9375 -12 10 C-12.66 9.01 -13.32 8.02 -14 7 C-13.39671875 7.11859375 -12.7934375 7.2371875 -12.171875 7.359375 C-7.06771714 8.31395064 -7.06771714 8.31395064 -2.5 6.3125 C-1.08156578 4.12574725 -0.36613301 2.56293104 0 0 Z " fill="#D4403E" transform="translate(806,898)"/>
<path d="M0 0 C0.99 0.33 1.98 0.66 3 1 C2.6875 3.375 2.6875 3.375 2 6 C-1.8503105 8.56687367 -3.58569763 7.83288724 -8 7 C-8 6.34 -8 5.68 -8 5 C-5.69 5 -3.38 5 -1 5 C-0.67 3.35 -0.34 1.7 0 0 Z " fill="#D3403E" transform="translate(767,901)"/>
<path d="M0 0 C0.66 0.33 1.32 0.66 2 1 C1.45730469 1.47050781 0.91460938 1.94101562 0.35546875 2.42578125 C-0.71767578 3.35970703 -0.71767578 3.35970703 -1.8125 4.3125 C-2.52019531 4.92738281 -3.22789062 5.54226563 -3.95703125 6.17578125 C-5.97181244 7.92262335 -5.97181244 7.92262335 -7.57421875 9.66796875 C-9 11 -9 11 -12 12 C-10.47940093 8.11985064 -8.13921469 6.26093438 -4.875 3.75 C-3.96492187 3.04359375 -3.05484375 2.3371875 -2.1171875 1.609375 C-1.41851563 1.07828125 -0.71984375 0.5471875 0 0 Z " fill="#CCCCCC" transform="translate(916,770)"/>
<path d="M0 0 C0.33 0 0.66 0 1 0 C1.33 2.64 1.66 5.28 2 8 C4.475 8.99 4.475 8.99 7 10 C7 10.66 7 11.32 7 12 C4.625 12.125 4.625 12.125 2 12 C0 10 0 10 -0.1953125 7.6171875 C-0.17210937 6.71226562 -0.14890625 5.80734375 -0.125 4.875 C-0.10695313 3.96492187 -0.08890625 3.05484375 -0.0703125 2.1171875 C-0.04710937 1.41851563 -0.02390625 0.71984375 0 0 Z " fill="#D6413E" transform="translate(735,897)"/>
<path d="M0 0 C0.66 0 1.32 0 2 0 C2 1.65 2 3.3 2 5 C3.65 5 5.3 5 7 5 C7 5.33 7 5.66 7 6 C5.02 6 3.04 6 1 6 C0.67 6.99 0.34 7.98 0 9 C0 8.01 0 7.02 0 6 C-0.99 5.67 -1.98 5.34 -3 5 C-2.01 5 -1.02 5 0 5 C0 3.35 0 1.7 0 0 Z " fill="#E94845" transform="translate(987,887)"/>
<path d="M0 0 C0.66 0 1.32 0 2 0 C2 1.65 2 3.3 2 5 C3.65 5 5.3 5 7 5 C7 5.33 7 5.66 7 6 C5.02 6 3.04 6 1 6 C0.67 6.99 0.34 7.98 0 9 C0 8.01 0 7.02 0 6 C-0.99 5.67 -1.98 5.34 -3 5 C-2.01 5 -1.02 5 0 5 C0 3.35 0 1.7 0 0 Z " fill="#EA4845" transform="translate(841,887)"/>
<path d="M0 0 C0.66 0.66 1.32 1.32 2 2 C-1.47325181 3.1577506 -4.36067448 3.06866652 -8 3 C-8 2.34 -8 1.68 -8 1 C-5.23749964 -0.38125018 -3.05268901 -0.19079306 0 0 Z " fill="#BB3836" transform="translate(973,891)"/>
<path d="M0 0 C1.36125 0.12375 1.36125 0.12375 2.75 0.25 C2.75 0.91 2.75 1.57 2.75 2.25 C-3.875 4.25 -3.875 4.25 -7.25 4.25 C-4.83923194 1.28290085 -3.90322061 0.30024774 0 0 Z " fill="#BC3937" transform="translate(925.25,890.75)"/>
<path d="M0 0 C0.33 0.99 0.66 1.98 1 3 C4.51190809 4.22969878 4.51190809 4.22969878 8 5 C7.01 5.66 6.02 6.32 5 7 C3.02 6.01 1.04 5.02 -1 4 C-0.67 2.68 -0.34 1.36 0 0 Z " fill="#BD3936" transform="translate(761,895)"/>
<path d="M0 0 C0.99 0 1.98 0 3 0 C2.125 4.75 2.125 4.75 1 7 C0.34 7 -0.32 7 -1 7 C-0.67 4.69 -0.34 2.38 0 0 Z " fill="#CF3F3D" transform="translate(855,905)"/>
<path d="M0 0 C0.99 0 1.98 0 3 0 C2.125 4.75 2.125 4.75 1 7 C0.34 7 -0.32 7 -1 7 C-0.67 4.69 -0.34 2.38 0 0 Z " fill="#CF3F3C" transform="translate(749,905)"/>
<path d="M0 0 C0.36923077 5.53846154 0.36923077 5.53846154 -1.5 7.875 C-2.2425 8.431875 -2.2425 8.431875 -3 9 C-4.45169732 6.09660535 -3.72348441 4.09125158 -3 1 C-1 0 -1 0 0 0 Z " fill="#B33533" transform="translate(934,897)"/>
</svg>
